<svg width="292" height="150" viewBox="0 0 292 150" fill="none" xmlns="http://www.w3.org/2000/svg">
<path d="M286.991 25H5.07471V113H286.991V25Z" stroke="#505967" stroke-width="0.5" stroke-linecap="round" stroke-dasharray="4 4"/>
<path d="M8.10589 20H3.05362C1.93751 20 1.03271 20.8954 1.03271 22V27C1.03271 28.1046 1.93751 29 3.05362 29H8.10589C9.222 29 10.1268 28.1046 10.1268 27V22C10.1268 20.8954 9.222 20 8.10589 20Z" fill="#26282D" stroke="#505967" stroke-width="0.5"/>
<path d="M289.012 20H283.959C282.843 20 281.938 20.8954 281.938 22V27C281.938 28.1046 282.843 29 283.959 29H289.012C290.128 29 291.033 28.1046 291.033 27V22C291.033 20.8954 290.128 20 289.012 20Z" fill="#26282D" stroke="#505967" stroke-width="0.5"/>
<path d="M8.10589 108H3.05362C1.93751 108 1.03271 108.895 1.03271 110V115C1.03271 116.105 1.93751 117 3.05362 117H8.10589C9.222 117 10.1268 116.105 10.1268 115V110C10.1268 108.895 9.222 108 8.10589 108Z" fill="#26282D" stroke="#505967" stroke-width="0.5"/>
<path d="M289.012 108H283.959C282.843 108 281.938 108.895 281.938 110V115C281.938 116.105 282.843 117 283.959 117H289.012C290.128 117 291.033 116.105 291.033 115V110C291.033 108.895 290.128 108 289.012 108Z" fill="#26282D" stroke="#505967" stroke-width="0.5"/>
<path d="M232.426 10H59.6389C56.2905 10 53.5762 12.6863 53.5762 16V38C53.5762 41.3137 56.2905 44 59.6389 44H232.426C235.775 44 238.489 41.3137 238.489 38V16C238.489 12.6863 235.775 10 232.426 10Z" fill="#26282D"/>
<path d="M232.427 10.25H59.6392C56.4304 10.25 53.8291 12.8244 53.8291 16V38C53.8291 41.1756 56.4304 43.75 59.6392 43.75H232.427C235.635 43.75 238.237 41.1756 238.237 38V16C238.237 12.8244 235.635 10.25 232.427 10.25Z" stroke="#505967" stroke-width="0.5"/>
<path d="M115.214 24H86.921C85.2468 24 83.8896 25.3431 83.8896 27C83.8896 28.6569 85.2468 30 86.921 30H115.214C116.888 30 118.245 28.6569 118.245 27C118.245 25.3431 116.888 24 115.214 24Z" fill="#505967"/>
<path fill-rule="evenodd" clip-rule="evenodd" d="M64.5188 23.6702C64.4142 23.8835 64.356 24.1202 64.356 24.3694V29.6313C64.356 30.5715 65.1853 31.3337 66.2084 31.3337H73.2816C74.3047 31.3337 75.1341 30.5715 75.1341 29.6313V24.3694C75.1341 24.1202 75.0759 23.8835 74.9712 23.6702L70.0843 27.5522C69.8917 27.7051 69.5983 27.7051 69.4057 27.5522L64.5188 23.6702ZM74.3429 22.9739C74.0424 22.7805 73.6764 22.667 73.2816 22.667H66.2084C65.8136 22.667 65.4476 22.7805 65.1471 22.9739L69.745 26.6263L74.3429 22.9739Z" fill="#6B9FFF"/>
<path d="M221.564 22.0625C221.564 24.1336 220.436 26 218.343 26C220.436 26 221.564 27.8664 221.564 29.9375C221.564 27.8664 222.692 26 224.784 26C222.692 26 221.564 24.1336 221.564 22.0625Z" fill="#505967"/>
<path d="M216.259 28.0625C216.259 29.3051 215.052 30.5 213.796 30.5C215.052 30.5 216.259 31.6949 216.259 32.9375C216.259 31.6949 217.467 30.5 218.722 30.5C217.467 30.5 216.259 29.3051 216.259 28.0625Z" fill="#505967"/>
<path d="M221.564 22.0625C221.564 24.1336 220.436 26 218.343 26C220.436 26 221.564 27.8664 221.564 29.9375C221.564 27.8664 222.692 26 224.784 26C222.692 26 221.564 24.1336 221.564 22.0625Z" stroke="#505967" stroke-width="1.35" stroke-linecap="round" stroke-linejoin="round"/>
<path d="M216.259 28.0625C216.259 29.3051 215.052 30.5 213.796 30.5C215.052 30.5 216.259 31.6949 216.259 32.9375C216.259 31.6949 217.467 30.5 218.722 30.5C217.467 30.5 216.259 29.3051 216.259 28.0625Z" stroke="#505967" stroke-width="1.35" stroke-linecap="round" stroke-linejoin="round"/>
<path d="M232.426 92H59.6389C56.2905 92 53.5762 94.6863 53.5762 98V120C53.5762 123.314 56.2905 126 59.6389 126H232.426C235.775 126 238.489 123.314 238.489 120V98C238.489 94.6863 235.775 92 232.426 92Z" fill="#26282D"/>
<path d="M232.427 92.25H59.6392C56.4304 92.25 53.8291 94.8244 53.8291 98V120C53.8291 123.176 56.4304 125.75 59.6392 125.75H232.427C235.635 125.75 238.237 123.176 238.237 120V98C238.237 94.8244 235.635 92.25 232.427 92.25Z" stroke="#505967" stroke-width="0.5"/>
<path d="M125.318 106H86.921C85.2468 106 83.8896 107.343 83.8896 109C83.8896 110.657 85.2468 112 86.921 112H125.318C126.992 112 128.35 110.657 128.35 109C128.35 107.343 126.992 106 125.318 106Z" fill="#505967"/>
<path fill-rule="evenodd" clip-rule="evenodd" d="M69.458 114.246C69.4581 114.247 69.4582 114.247 69.7423 113.833L69.458 114.246ZM70.027 114.246L70.0309 114.244L70.0414 114.236L70.0797 114.21C70.1127 114.187 70.1601 114.154 70.22 114.111C70.3397 114.025 70.5095 113.9 70.7126 113.742C71.118 113.426 71.6604 112.975 72.2047 112.437C72.7473 111.9 73.3032 111.264 73.726 110.578C74.1466 109.895 74.4578 109.127 74.4578 108.333C74.4578 105.714 72.2438 103.667 69.7423 103.667C67.2409 103.667 65.0269 105.714 65.0269 108.333C65.0269 109.127 65.3381 109.895 65.7586 110.578C66.1815 111.264 66.7373 111.9 67.28 112.437C67.8243 112.975 68.3667 113.426 68.7721 113.742C68.9752 113.9 69.145 114.025 69.2647 114.111C69.3246 114.154 69.372 114.187 69.4049 114.21L69.4432 114.236L69.4537 114.244L69.4568 114.246H69.458C69.6295 114.362 69.8555 114.362 70.027 114.246ZM69.7423 113.833L70.027 114.246C70.0269 114.246 70.0265 114.247 69.7423 113.833ZM67.8905 108.333C67.8905 107.32 68.7199 106.5 69.7429 106.5C70.7661 106.5 71.5955 107.32 71.5955 108.333C71.5955 109.345 70.7661 110.166 69.7429 110.166C68.7199 110.166 67.8905 109.345 67.8905 108.333Z" fill="#6B9FFF"/>
<path d="M221.564 104.062C221.564 106.134 220.436 108 218.343 108C220.436 108 221.564 109.866 221.564 111.937C221.564 109.866 222.692 108 224.784 108C222.692 108 221.564 106.134 221.564 104.062Z" fill="#505967"/>
<path d="M216.259 110.062C216.259 111.305 215.052 112.5 213.796 112.5C215.052 112.5 216.259 113.695 216.259 114.937C216.259 113.695 217.467 112.5 218.722 112.5C217.467 112.5 216.259 111.305 216.259 110.062Z" fill="#505967"/>
<path d="M221.564 104.062C221.564 106.134 220.436 108 218.343 108C220.436 108 221.564 109.866 221.564 111.937C221.564 109.866 222.692 108 224.784 108C222.692 108 221.564 106.134 221.564 104.062Z" stroke="#505967" stroke-width="1.35" stroke-linecap="round" stroke-linejoin="round"/>
<path d="M216.259 110.062C216.259 111.305 215.052 112.5 213.796 112.5C215.052 112.5 216.259 113.695 216.259 114.937C216.259 113.695 217.467 112.5 218.722 112.5C217.467 112.5 216.259 111.305 216.259 110.062Z" stroke="#505967" stroke-width="1.35" stroke-linecap="round" stroke-linejoin="round"/>
<path d="M232.426 51H59.6389C56.2905 51 53.5762 53.6863 53.5762 57V79C53.5762 82.3137 56.2905 85 59.6389 85H232.426C235.775 85 238.489 82.3137 238.489 79V57C238.489 53.6863 235.775 51 232.426 51Z" fill="#26282D"/>
<path d="M232.427 51.25H59.6392C56.4304 51.25 53.8291 53.8244 53.8291 57V79C53.8291 82.1756 56.4304 84.75 59.6392 84.75H232.427C235.635 84.75 238.237 82.1756 238.237 79V57C238.237 53.8244 235.635 51.25 232.427 51.25Z" stroke="#505967" stroke-width="0.5"/>
<path d="M137.444 65H86.921C85.2468 65 83.8896 66.3431 83.8896 68C83.8896 69.6569 85.2468 71 86.921 71H137.444C139.118 71 140.475 69.6569 140.475 68C140.475 66.3431 139.118 65 137.444 65Z" fill="#505967"/>
<path d="M64.8608 72.8332L67.7238 72.1666L73.9838 65.9713C74.2468 65.711 74.2468 65.2888 73.9838 65.0285L72.7471 63.8046C72.4841 63.5443 72.0575 63.5443 71.7945 63.8046L65.5344 69.9999L64.8608 72.8332Z" fill="#6F7988" stroke="#6F7988" stroke-width="1.2" stroke-linecap="round" stroke-linejoin="round"/>
<path d="M74.6288 72.833H70.9238" stroke="#6F7988" stroke-width="1.2" stroke-linecap="round" stroke-linejoin="round"/>
<path d="M221.564 63.0625C221.564 65.1336 220.436 67 218.343 67C220.436 67 221.564 68.8664 221.564 70.9375C221.564 68.8664 222.692 67 224.784 67C222.692 67 221.564 65.1336 221.564 63.0625Z" fill="#9098A0"/>
<path d="M216.259 69.0625C216.259 70.3051 215.052 71.5 213.796 71.5C215.052 71.5 216.259 72.6949 216.259 73.9375C216.259 72.6949 217.467 71.5 218.722 71.5C217.467 71.5 216.259 70.3051 216.259 69.0625Z" fill="#9098A0"/>
<path d="M221.564 63.0625C221.564 65.1336 220.436 67 218.343 67C220.436 67 221.564 68.8664 221.564 70.9375C221.564 68.8664 222.692 67 224.784 67C222.692 67 221.564 65.1336 221.564 63.0625Z" stroke="#9098A0" stroke-width="1.35" stroke-linecap="round" stroke-linejoin="round"/>
<path d="M216.259 69.0625C216.259 70.3051 215.052 71.5 213.796 71.5C215.052 71.5 216.259 72.6949 216.259 73.9375C216.259 72.6949 217.467 71.5 218.722 71.5C217.467 71.5 216.259 70.3051 216.259 69.0625Z" stroke="#9098A0" stroke-width="1.35" stroke-linecap="round" stroke-linejoin="round"/>
</svg>
