<svg width="48" height="48" viewBox="0 0 48 48" fill="none" xmlns="http://www.w3.org/2000/svg">
<g clip-path="url(#clip0_843_96029)">
<path d="M24 48.8469C37.2548 48.8469 48 38.1018 48 24.8469C48 11.5921 37.2548 0.846924 24 0.846924C10.7452 0.846924 0 11.5921 0 24.8469C0 38.1018 10.7452 48.8469 24 48.8469Z" fill="white"/>
<mask id="mask0_843_96029" style="mask-type:luminance" maskUnits="userSpaceOnUse" x="5" y="6" width="38" height="38">
<path d="M42.4001 6.44702H5.6001V43.2471H42.4001V6.44702Z" fill="white"/>
</mask>
<g mask="url(#mask0_843_96029)">
<path d="M36.9796 14.0417L25.7171 8.65899C24.5224 8.08202 23.1139 8.16009 21.99 8.86638L10.3685 16.1847C9.24457 16.891 8.56409 18.1291 8.56986 19.4558L8.61268 31.9013C8.61857 33.3724 9.46225 34.713 10.787 35.3548L22.0495 40.7375C23.2441 41.3145 24.6526 41.2365 25.7765 40.5302L37.398 33.2117C38.5219 32.5054 39.2024 31.2674 39.1966 29.9408L39.1749 23.2496L39.1562 17.4952C39.1504 16.024 38.3066 14.6836 36.9844 14.0441L36.9796 14.0417Z" fill="white" stroke="#31373D" stroke-miterlimit="10"/>
<g opacity="0.8">
<mask id="path-4-inside-1_843_96029" fill="white">
<path d="M21.089 36.3621L13.0586 32.5228C12.2376 32.125 11.7029 31.2762 11.7001 30.3615L11.6694 21.3754"/>
</mask>
<path d="M21.089 36.3621L13.0586 32.5228C12.2376 32.125 11.7029 31.2762 11.7001 30.3615L11.6694 21.3754" fill="white"/>
<path d="M13.0586 32.5228L12.6225 33.4227L12.6272 33.425L13.0586 32.5228ZM11.7001 30.3615L12.7001 30.3584L12.7001 30.3581L11.7001 30.3615ZM21.5203 35.4599L13.4899 31.6206L12.6272 33.425L20.6576 37.2643L21.5203 35.4599ZM13.4946 31.6229C13.0174 31.3916 12.7017 30.8908 12.7001 30.3584L10.7001 30.3646C10.7041 31.6616 11.4577 32.8583 12.6225 33.4227L13.4946 31.6229ZM12.7001 30.3581L12.6694 21.372L10.6694 21.3788L10.7001 30.3649L12.7001 30.3581Z" fill="#31373D" mask="url(#path-4-inside-1_843_96029)"/>
<path d="M21.089 36.3621L13.0586 32.5228C12.2376 32.125 11.7029 31.2762 11.7001 30.3615L11.6694 21.3754" stroke="#31373D" stroke-width="0.8" stroke-miterlimit="10"/>
<mask id="path-7-inside-2_843_96029" fill="white">
<path d="M13.2856 20.1744L21.418 23.6664C22.3796 24.089 23.0039 24.9738 23.0072 25.9276L23.0398 34.1984"/>
</mask>
<path d="M13.2856 20.1744L21.418 23.6664C22.3796 24.089 23.0039 24.9738 23.0072 25.9276L23.0398 34.1984" fill="white"/>
<path d="M21.418 23.6664L21.8203 22.7509L21.8126 22.7476L21.418 23.6664ZM23.0072 25.9276L22.0072 25.9311L22.0072 25.9315L23.0072 25.9276ZM12.8911 21.0933L21.0234 24.5853L21.8126 22.7476L13.6802 19.2556L12.8911 21.0933ZM21.0157 24.5819C21.6645 24.8671 22.0054 25.4239 22.0072 25.9311L24.0072 25.9241C24.0023 24.5237 23.0946 23.3109 21.8203 22.7509L21.0157 24.5819ZM22.0072 25.9315L22.0398 34.2024L24.0398 34.1945L24.0072 25.9236L22.0072 25.9315Z" fill="#31373D" mask="url(#path-7-inside-2_843_96029)"/>
<path d="M14.7549 20.78L21.6621 24.1213C22.4788 24.5256 23.009 25.3722 23.0119 26.2848L23.0395 34.1986" stroke="#31373D" stroke-width="0.8" stroke-miterlimit="10"/>
<mask id="path-10-inside-3_843_96029" fill="white">
<path d="M11.6871 25.0893L11.6729 20.6247C11.6726 20.2242 11.9503 20.0051 12.0707 19.9284C12.191 19.8539 12.5104 19.6962 12.8716 19.871L15.1595 20.9767"/>
</mask>
<path d="M11.6871 25.0893L11.6729 20.6247C11.6726 20.2242 11.9503 20.0051 12.0707 19.9284C12.191 19.8539 12.5104 19.6962 12.8716 19.871L15.1595 20.9767" fill="white"/>
<path d="M11.6729 20.6247L10.6728 20.6255L10.6729 20.6279L11.6729 20.6247ZM12.0707 19.9284L11.5439 19.0783L11.5333 19.0851L12.0707 19.9284ZM12.8716 19.871L12.4361 20.7712L12.4365 20.7713L12.8716 19.871ZM12.687 25.0861L12.6728 20.6215L10.6729 20.6279L10.6871 25.0925L12.687 25.0861ZM12.6729 20.624C12.6729 20.6421 12.6693 20.6672 12.6597 20.6941C12.6506 20.7195 12.6393 20.7379 12.6311 20.749C12.6235 20.7593 12.6178 20.7645 12.6161 20.7659C12.6144 20.7674 12.6123 20.7691 12.608 20.7718L11.5333 19.0851C11.3176 19.2225 10.6722 19.7041 10.6729 20.6255L12.6729 20.624ZM12.5973 20.7785C12.5938 20.7807 12.5919 20.7816 12.5902 20.7824C12.5886 20.783 12.5819 20.7859 12.5694 20.7883C12.5561 20.7908 12.5344 20.7932 12.5071 20.7903C12.4782 20.7873 12.4533 20.7795 12.4361 20.7712L13.3071 18.9708C12.4733 18.5674 11.7555 18.9473 11.544 19.0784L12.5973 20.7785ZM12.4365 20.7713L14.7243 21.877L15.5946 20.0763L13.3068 18.9706L12.4365 20.7713Z" fill="#31373D" mask="url(#path-10-inside-3_843_96029)"/>
<path d="M11.6871 25.0893L11.6729 20.6247C11.6726 20.2242 11.9503 20.0051 12.0707 19.9284C12.191 19.8539 12.5104 19.6962 12.8716 19.871L15.1595 20.9767" stroke="#31373D" stroke-width="0.8" stroke-miterlimit="10"/>
<mask id="path-13-inside-4_843_96029" fill="white">
<path d="M23.0273 31.1501L23.0439 36.0415C23.0442 36.4397 22.784 36.6478 22.6725 36.718C22.5608 36.7882 22.2611 36.935 21.9021 36.7602L16.8447 34.3477"/>
</mask>
<path d="M23.0273 31.1501L23.0439 36.0415C23.0442 36.4397 22.784 36.6478 22.6725 36.718C22.5608 36.7882 22.2611 36.935 21.9021 36.7602L16.8447 34.3477" fill="white"/>
<path d="M23.0439 36.0415L24.0439 36.0408L24.0439 36.0381L23.0439 36.0415ZM22.6725 36.718L23.2045 37.5647L23.205 37.5644L22.6725 36.718ZM21.9021 36.7602L22.3398 35.8611L22.3327 35.8577L21.9021 36.7602ZM22.0273 31.1536L22.0439 36.0449L24.0439 36.0381L24.0273 31.1467L22.0273 31.1536ZM22.0439 36.0422C22.0439 36.0306 22.0462 36.0091 22.0551 35.9829C22.0637 35.9577 22.0753 35.937 22.0863 35.9217C22.1047 35.8959 22.1225 35.8826 22.14 35.8716L23.205 37.5644C23.4431 37.4147 24.0446 36.9406 24.0439 36.0408L22.0439 36.0422ZM22.1405 35.8713C22.1538 35.8629 22.1731 35.852 22.2061 35.8462C22.2255 35.8428 22.2505 35.8411 22.2783 35.8445C22.3073 35.848 22.3287 35.8557 22.3398 35.8611L21.4644 37.6593C22.2813 38.057 22.973 37.7102 23.2045 37.5647L22.1405 35.8713ZM22.3327 35.8577L17.2753 33.4451L16.4142 35.2502L21.4715 37.6628L22.3327 35.8577Z" fill="#31373D" mask="url(#path-13-inside-4_843_96029)"/>
<path d="M23.0273 31.1501L23.0439 36.0415C23.0442 36.4397 22.784 36.6478 22.6725 36.718C22.5608 36.7882 22.2611 36.935 21.9021 36.7602L16.8447 34.3477" stroke="#31373D" stroke-width="0.8" stroke-miterlimit="10"/>
</g>
</g>
</g>
<defs>
<clipPath id="clip0_843_96029">
<rect width="48" height="48" fill="white"/>
</clipPath>
</defs>
</svg>
