<svg width="41" height="36" viewBox="0 0 41 36" fill="none" xmlns="http://www.w3.org/2000/svg">
<path d="M40.2002 18.0286L31.2791 1.95068C30.9557 1.36273 30.4853 0.87252 29.9158 0.529894C29.3462 0.187268 28.6979 0.00444113 28.0365 0H12.3639C11.7025 0.00444113 11.0542 0.187268 10.4846 0.529894C9.91509 0.87252 9.44472 1.36273 9.12134 1.95068L7.99589 3.98417H28.0102L25.7856 7.96956H5.77367L3.54906 11.9817H23.561L21.3376 15.9659H1.32564L0.200195 18.0286L1.29936 19.9793H21.3113L23.5096 23.9635H3.4941L5.71752 27.9476H25.7319L27.9553 31.933H7.94333L9.12134 34.0505C9.44488 34.6383 9.91531 35.1282 10.4848 35.4706C11.0543 35.813 11.7027 35.9957 12.3639 36H28.0365C28.6977 35.9957 29.346 35.813 29.9156 35.4706C30.4851 35.1282 30.9555 34.6383 31.2791 34.0505L40.2002 18.0286Z" fill="#EF54AC"/>
</svg>
