<svg width="291" height="150" viewBox="0 0 291 150" fill="none" xmlns="http://www.w3.org/2000/svg">
<path d="M286.458 31.5H4.54199V119.5H286.458V31.5Z" stroke="#505967" stroke-width="0.5" stroke-linecap="round" stroke-dasharray="4 4"/>
<path d="M7.57317 26.5H2.52091C1.40479 26.5 0.5 27.3954 0.5 28.5V33.5C0.5 34.6046 1.40479 35.5 2.52091 35.5H7.57317C8.68929 35.5 9.59408 34.6046 9.59408 33.5V28.5C9.59408 27.3954 8.68929 26.5 7.57317 26.5Z" fill="#26282D" stroke="#505967" stroke-width="0.5"/>
<path d="M288.479 26.5H283.427C282.311 26.5 281.406 27.3954 281.406 28.5V33.5C281.406 34.6046 282.311 35.5 283.427 35.5H288.479C289.595 35.5 290.5 34.6046 290.5 33.5V28.5C290.5 27.3954 289.595 26.5 288.479 26.5Z" fill="#26282D" stroke="#505967" stroke-width="0.5"/>
<path d="M7.57317 114.5H2.52091C1.40479 114.5 0.5 115.395 0.5 116.5V121.5C0.5 122.605 1.40479 123.5 2.52091 123.5H7.57317C8.68929 123.5 9.59408 122.605 9.59408 121.5V116.5C9.59408 115.395 8.68929 114.5 7.57317 114.5Z" fill="#26282D" stroke="#505967" stroke-width="0.5"/>
<path d="M288.479 114.5H283.427C282.311 114.5 281.406 115.395 281.406 116.5V121.5C281.406 122.605 282.311 123.5 283.427 123.5H288.479C289.595 123.5 290.5 122.605 290.5 121.5V116.5C290.5 115.395 289.595 114.5 288.479 114.5Z" fill="#26282D" stroke="#505967" stroke-width="0.5"/>
<path d="M232.566 16.5H59.779C56.4307 16.5 53.7163 19.1863 53.7163 22.5V44.5C53.7163 47.8137 56.4307 50.5 59.779 50.5H232.566C235.915 50.5 238.629 47.8137 238.629 44.5V22.5C238.629 19.1863 235.915 16.5 232.566 16.5Z" fill="#26282D"/>
<path d="M232.567 16.75H59.7793C56.5705 16.75 53.9692 19.3244 53.9692 22.5V44.5C53.9692 47.6756 56.5705 50.25 59.7793 50.25H232.567C235.776 50.25 238.377 47.6756 238.377 44.5V22.5C238.377 19.3244 235.776 16.75 232.567 16.75Z" stroke="#505967" stroke-width="0.5"/>
<path d="M64.8317 36.5C66.5058 36.5 67.863 35.1569 67.863 33.5C67.863 31.8431 66.5058 30.5 64.8317 30.5C63.1575 30.5 61.8003 31.8431 61.8003 33.5C61.8003 35.1569 63.1575 36.5 64.8317 36.5Z" fill="#505967"/>
<path d="M74.9361 36.5C76.6103 36.5 77.9675 35.1569 77.9675 33.5C77.9675 31.8431 76.6103 30.5 74.9361 30.5C73.262 30.5 71.9048 31.8431 71.9048 33.5C71.9048 35.1569 73.262 36.5 74.9361 36.5Z" fill="#505967"/>
<path d="M85.0406 36.5C86.7148 36.5 88.072 35.1569 88.072 33.5C88.072 31.8431 86.7148 30.5 85.0406 30.5C83.3665 30.5 82.0093 31.8431 82.0093 33.5C82.0093 35.1569 83.3665 36.5 85.0406 36.5Z" fill="#505967"/>
<path d="M223.472 41C227.658 41 231.051 37.6421 231.051 33.5C231.051 29.3579 227.658 26 223.472 26C219.287 26 215.894 29.3579 215.894 33.5C215.894 37.6421 219.287 41 223.472 41Z" fill="#505967" stroke="#26282D"/>
<path d="M214.379 41C218.564 41 221.957 37.6421 221.957 33.5C221.957 29.3579 218.564 26 214.379 26C210.193 26 206.8 29.3579 206.8 33.5C206.8 37.6421 210.193 41 214.379 41Z" fill="#6F7988" stroke="#26282D"/>
<path d="M205.284 41C209.47 41 212.863 37.6421 212.863 33.5C212.863 29.3579 209.47 26 205.284 26C201.099 26 197.706 29.3579 197.706 33.5C197.706 37.6421 201.099 41 205.284 41Z" fill="#505967" stroke="#26282D"/>
<path d="M93.4619 57.5H60.1169C56.7686 57.5 54.0542 60.1863 54.0542 63.5V127.5C54.0542 130.814 56.7686 133.5 60.1169 133.5H93.4619C96.8102 133.5 99.5246 130.814 99.5246 127.5V63.5C99.5246 60.1863 96.8102 57.5 93.4619 57.5Z" fill="#26282D"/>
<path d="M93.4617 57.75H60.1167C56.9079 57.75 54.3066 60.3244 54.3066 63.5V127.5C54.3066 130.676 56.9079 133.25 60.1167 133.25H93.4617C96.6705 133.25 99.2718 130.676 99.2718 127.5V63.5C99.2718 60.3244 96.6705 57.75 93.4617 57.75Z" stroke="#505967" stroke-width="0.5"/>
<path d="M232.904 57.5H114.681C111.333 57.5 108.619 60.1863 108.619 63.5V127.5C108.619 130.814 111.333 133.5 114.681 133.5H232.904C236.253 133.5 238.967 130.814 238.967 127.5V63.5C238.967 60.1863 236.253 57.5 232.904 57.5Z" fill="#26282D"/>
<path d="M232.904 57.75H114.681C111.472 57.75 108.871 60.3244 108.871 63.5V127.5C108.871 130.676 111.472 133.25 114.681 133.25H232.904C236.113 133.25 238.714 130.676 238.714 127.5V63.5C238.714 60.3244 236.113 57.75 232.904 57.75Z" stroke="#505967" stroke-width="0.5"/>
<path d="M210.337 115.5H143.647C141.973 115.5 140.616 116.843 140.616 118.5C140.616 120.157 141.973 121.5 143.647 121.5H210.337C212.011 121.5 213.368 120.157 213.368 118.5C213.368 116.843 212.011 115.5 210.337 115.5Z" fill="#505967"/>
<path d="M119.396 119.037L124.191 113.667V117.963H127.306L122.17 123.334V119.037H119.396Z" fill="#6B9FFF" stroke="#6B9FFF" stroke-width="1.2" stroke-linecap="round" stroke-linejoin="round"/>
<path d="M166.888 92.5H143.647C141.973 92.5 140.616 93.8431 140.616 95.5C140.616 97.1569 141.973 98.5 143.647 98.5H166.888C168.562 98.5 169.919 97.1569 169.919 95.5C169.919 93.8431 168.562 92.5 166.888 92.5Z" fill="#505967"/>
<path d="M118.555 100.333L121.418 99.6666L127.679 93.4713C127.941 93.211 127.941 92.7888 127.679 92.5285L126.442 91.3046C126.178 91.0443 125.752 91.0443 125.489 91.3046L119.229 97.4999L118.555 100.333Z" fill="#9098A0" stroke="#9098A0" stroke-width="1.2" stroke-linecap="round" stroke-linejoin="round"/>
<path d="M128.323 100.333H124.618" stroke="#9098A0" stroke-width="1.2" stroke-linecap="round" stroke-linejoin="round"/>
<path d="M183.055 69.5H143.647C141.973 69.5 140.616 70.8431 140.616 72.5C140.616 74.1569 141.973 75.5 143.647 75.5H183.055C184.729 75.5 186.086 74.1569 186.086 72.5C186.086 70.8431 184.729 69.5 183.055 69.5Z" fill="#505967"/>
<path d="M125.626 69.8337C125.626 71.0303 124.646 72.0003 123.437 72.0003C122.228 72.0003 121.248 71.0303 121.248 69.8337C121.248 68.637 122.228 67.667 123.437 67.667C124.646 67.667 125.626 68.637 125.626 69.8337Z" fill="#6B9FFF" stroke="#6B9FFF" stroke-width="1.2" stroke-linecap="round" stroke-linejoin="round"/>
<path d="M119.966 77.333H126.908C127.677 77.333 128.269 76.6784 127.91 76.0053C127.382 75.015 126.177 73.833 123.437 73.833C120.697 73.833 119.491 75.015 118.963 76.0053C118.604 76.6784 119.196 77.333 119.966 77.333Z" fill="#6B9FFF" stroke="#6B9FFF" stroke-width="1.2" stroke-linecap="round" stroke-linejoin="round"/>
</svg>
