<svg width="292" height="150" viewBox="0 0 292 150" fill="none" xmlns="http://www.w3.org/2000/svg">
<path d="M287.477 32H4.58496V120H287.477V32Z" stroke="#505967" stroke-width="0.5" stroke-linecap="round" stroke-dasharray="4 4"/>
<path d="M7.62694 27H2.5572C1.43722 27 0.529297 27.8954 0.529297 29V34C0.529297 35.1046 1.43722 36 2.5572 36H7.62694C8.74692 36 9.65484 35.1046 9.65484 34V29C9.65484 27.8954 8.74692 27 7.62694 27Z" fill="#26282D" stroke="#505967" stroke-width="0.5"/>
<path d="M289.505 27H284.435C283.315 27 282.407 27.8954 282.407 29V34C282.407 35.1046 283.315 36 284.435 36H289.505C290.625 36 291.533 35.1046 291.533 34V29C291.533 27.8954 290.625 27 289.505 27Z" fill="#26282D" stroke="#505967" stroke-width="0.5"/>
<path d="M7.62694 115H2.5572C1.43722 115 0.529297 115.895 0.529297 117V122C0.529297 123.105 1.43722 124 2.5572 124H7.62694C8.74692 124 9.65484 123.105 9.65484 122V117C9.65484 115.895 8.74692 115 7.62694 115Z" fill="#26282D" stroke="#505967" stroke-width="0.5"/>
<path d="M289.505 115H284.435C283.315 115 282.407 115.895 282.407 117V122C282.407 123.105 283.315 124 284.435 124H289.505C290.625 124 291.533 123.105 291.533 122V117C291.533 115.895 290.625 115 289.505 115Z" fill="#26282D" stroke="#505967" stroke-width="0.5"/>
<path d="M216.5 17H76.5754C73.2155 17 70.4917 19.6863 70.4917 23V45C70.4917 48.3137 73.2155 51 76.5754 51H216.5C219.86 51 222.584 48.3137 222.584 45V23C222.584 19.6863 219.86 17 216.5 17Z" fill="#26282D"/>
<path d="M216.5 17.25H76.5753C73.3554 17.25 70.7451 19.8244 70.7451 23V45C70.7451 48.1756 73.3554 50.75 76.5753 50.75H216.5C219.72 50.75 222.331 48.1756 222.331 45V23C222.331 19.8244 219.72 17.25 216.5 17.25Z" stroke="#505967" stroke-width="0.5"/>
<path d="M159.719 34.5374L164.53 29.167V33.4633H167.656L162.503 38.8337V34.5374H159.719Z" fill="#4B8BFF" stroke="#4B8BFF" stroke-width="1.2" stroke-linecap="round" stroke-linejoin="round"/>
<path d="M197.236 31H177.971C176.291 31 174.929 32.3431 174.929 34C174.929 35.6569 176.291 37 177.971 37H197.236C198.916 37 200.277 35.6569 200.277 34C200.277 32.3431 198.916 31 197.236 31Z" fill="#4B8BFF"/>
<path d="M216.5 58H76.5754C73.2155 58 70.4917 60.6863 70.4917 64V127C70.4917 130.314 73.2155 133 76.5754 133H216.5C219.86 133 222.584 130.314 222.584 127V64C222.584 60.6863 219.86 58 216.5 58Z" fill="#26282D"/>
<path d="M216.5 58.25H76.5753C73.3554 58.25 70.7451 60.8244 70.7451 64V127C70.7451 130.176 73.3554 132.75 76.5753 132.75H216.5C219.72 132.75 222.331 130.176 222.331 127V64C222.331 60.8244 219.72 58.25 216.5 58.25Z" stroke="#505967" stroke-width="0.5"/>
<path d="M170.873 58V133" stroke="#505967" stroke-width="0.5"/>
<path d="M90.9388 31.3337C90.9388 32.5303 89.9551 33.5003 88.7418 33.5003C87.5286 33.5003 86.5449 32.5303 86.5449 31.3337C86.5449 30.137 87.5286 29.167 88.7418 29.167C89.9551 29.167 90.9388 30.137 90.9388 31.3337Z" fill="#6F7988" stroke="#6F7988" stroke-width="1.2" stroke-linecap="round" stroke-linejoin="round"/>
<path d="M85.2586 38.833H92.2244C92.9963 38.833 93.5909 38.1784 93.2304 37.5053C92.7001 36.515 91.4913 35.333 88.7415 35.333C85.9916 35.333 84.7828 36.515 84.2525 37.5053C83.8921 38.1784 84.4866 38.833 85.2586 38.833Z" fill="#6F7988" stroke="#6F7988" stroke-width="1.2" stroke-linecap="round" stroke-linejoin="round"/>
<path d="M150.594 31H103.952C102.272 31 100.91 32.3431 100.91 34C100.91 35.6569 102.272 37 103.952 37H150.594C152.274 37 153.636 35.6569 153.636 34C153.636 32.3431 152.274 31 150.594 31Z" fill="#505967"/>
<path d="M141.468 69H103.952C102.272 69 100.91 70.3431 100.91 72C100.91 73.6569 102.272 75 103.952 75H141.468C143.148 75 144.51 73.6569 144.51 72C144.51 70.3431 143.148 69 141.468 69Z" fill="#505967"/>
<path d="M90.7891 67.1719C90.7891 69.0161 89.7812 70.6781 87.9111 70.6781C89.7812 70.6781 90.7891 72.3401 90.7891 74.1844C90.7891 72.3401 91.7972 70.6781 93.6671 70.6781C91.7972 70.6781 90.7891 69.0161 90.7891 67.1719Z" fill="#6B9FFF" stroke="#6B9FFF"/>
<path d="M86.0484 72.5146C86.0484 73.6212 84.9696 74.6852 83.8477 74.6852C84.9696 74.6852 86.0484 75.7492 86.0484 76.8558C86.0484 75.7492 87.1273 74.6852 88.2492 74.6852C87.1273 74.6852 86.0484 73.6212 86.0484 72.5146Z" fill="#6B9FFF" stroke="#6B9FFF"/>
<path d="M90.7891 67.1719C90.7891 69.0161 89.7812 70.6781 87.9111 70.6781C89.7812 70.6781 90.7891 72.3401 90.7891 74.1844C90.7891 72.3401 91.7972 70.6781 93.6671 70.6781C91.7972 70.6781 90.7891 69.0161 90.7891 67.1719Z" stroke="#6B9FFF" stroke-width="1.20214" stroke-linecap="round" stroke-linejoin="round"/>
<path d="M86.0484 72.5146C86.0484 73.6212 84.9696 74.6852 83.8477 74.6852C84.9696 74.6852 86.0484 75.7492 86.0484 76.8558C86.0484 75.7492 87.1273 74.6852 88.2492 74.6852C87.1273 74.6852 86.0484 73.6212 86.0484 72.5146Z" stroke="#6B9FFF" stroke-width="1.20214" stroke-linecap="round" stroke-linejoin="round"/>
<path d="M128.287 92H103.952C102.272 92 100.91 93.3431 100.91 95C100.91 96.6569 102.272 98 103.952 98H128.287C129.967 98 131.329 96.6569 131.329 95C131.329 93.3431 129.967 92 128.287 92Z" fill="#505967"/>
<path fill-rule="evenodd" clip-rule="evenodd" d="M83.3338 91.4029C83.2347 91.604 83.1797 91.8272 83.1797 92.0621V97.0233C83.1797 97.9098 83.9644 98.6284 84.9323 98.6284H91.6244C92.5924 98.6284 93.3771 97.9098 93.3771 97.0233V92.0621C93.3771 91.8272 93.3219 91.604 93.223 91.4029L88.5993 95.063C88.4172 95.2072 88.1395 95.2072 87.9574 95.063L83.3338 91.4029ZM92.6286 90.7464C92.3442 90.564 91.9979 90.457 91.6244 90.457H84.9323C84.5589 90.457 84.2126 90.564 83.9282 90.7464L88.2783 94.1901L92.6286 90.7464Z" fill="#6F7988"/>
<path d="M156.677 115H103.952C102.272 115 100.91 116.343 100.91 118C100.91 119.657 102.272 121 103.952 121H156.677C158.357 121 159.719 119.657 159.719 118C159.719 116.343 158.357 115 156.677 115Z" fill="#505967"/>
<path fill-rule="evenodd" clip-rule="evenodd" d="M88.0098 121.491C88.0099 121.491 88.01 121.491 88.2788 121.101L88.0098 121.491ZM88.5481 121.491L88.549 121.49L88.5518 121.488L88.5618 121.482L88.5979 121.457C88.6291 121.435 88.674 121.404 88.7307 121.363C88.8439 121.282 89.0045 121.164 89.1967 121.015C89.5803 120.718 90.0934 120.293 90.6084 119.785C91.1218 119.278 91.6477 118.679 92.0478 118.032C92.4457 117.389 92.7401 116.664 92.7401 115.916C92.7401 113.446 90.6454 111.516 88.2788 111.516C85.9121 111.516 83.8174 113.446 83.8174 115.916C83.8174 116.664 84.1117 117.389 84.5096 118.032C84.9097 118.679 85.4356 119.278 85.949 119.785C86.4641 120.293 86.9773 120.718 87.3608 121.015C87.553 121.164 87.7136 121.282 87.8268 121.363C87.8835 121.404 87.9283 121.435 87.9596 121.457L87.9958 121.482L88.0057 121.488L88.0085 121.49L88.0098 121.491C88.172 121.6 88.3858 121.6 88.5481 121.491ZM88.2788 121.101L88.5481 121.491C88.548 121.491 88.5476 121.491 88.2788 121.101ZM86.5277 115.916C86.5277 114.961 87.3124 114.187 88.2803 114.187C89.2483 114.187 90.033 114.961 90.033 115.916C90.033 116.87 89.2483 117.644 88.2803 117.644C87.3124 117.644 86.5277 116.87 86.5277 115.916Z" fill="#6B9FFF"/>
<path d="M217.515 69H179.998C178.318 69 176.957 70.3431 176.957 72C176.957 73.6569 178.318 75 179.998 75H217.515C219.194 75 220.556 73.6569 220.556 72C220.556 70.3431 219.194 69 217.515 69Z" fill="#505967"/>
<path d="M210.417 99H179.998C178.318 99 176.957 100.343 176.957 102C176.957 103.657 178.318 105 179.998 105H210.417C212.097 105 213.459 103.657 213.459 102C213.459 100.343 212.097 99 210.417 99Z" fill="#505967"/>
<path d="M194.194 114H179.998C178.318 114 176.957 115.343 176.957 117C176.957 118.657 178.318 120 179.998 120H194.194C195.874 120 197.236 118.657 197.236 117C197.236 115.343 195.874 114 194.194 114Z" fill="#4B8BFF"/>
<path d="M204.333 84H179.998C178.318 84 176.957 85.3431 176.957 87C176.957 88.6569 178.318 90 179.998 90H204.333C206.013 90 207.375 88.6569 207.375 87C207.375 85.3431 206.013 84 204.333 84Z" fill="#505967"/>
</svg>
