<svg width="20" height="21" viewBox="0 0 20 21" fill="none" xmlns="http://www.w3.org/2000/svg">
<g clip-path="url(#clip0_2004_7625)">
<mask id="mask0_2004_7625" style="mask-type:luminance" maskUnits="userSpaceOnUse" x="-1" y="-2" width="23" height="25">
<path d="M-0.600098 22.5L21.3999 22.5L21.3999 -1.5L-0.600098 -1.5L-0.600098 22.5Z" fill="white"/>
</mask>
<g mask="url(#mask0_2004_7625)">
<path d="M14.7498 10.4591V7.64278C14.7498 5.64258 14.7498 4.64249 14.38 3.87851C14.0547 3.2065 13.5357 2.66014 12.8973 2.31773C12.1715 1.92847 11.2214 1.92847 9.3212 1.92847H7.06212C5.37235 1.92847 4.52746 1.92847 3.86777 2.23818C3.10343 2.59702 2.49206 3.24058 2.15116 4.04515C1.85693 4.73955 1.85693 5.62891 1.85693 7.40762V9.78561C1.85693 11.7858 1.85693 12.7859 2.22673 13.5499C2.55202 14.2219 3.07106 14.7682 3.70946 15.1106C4.43524 15.4999 5.38533 15.4999 7.2855 15.4999H9.96101C11.2603 15.4999 11.9099 15.4999 12.4343 15.3151C13.4438 14.9593 14.2361 14.1252 14.5742 13.0625C14.7498 12.5105 14.7498 11.8267 14.7498 10.4591Z" stroke="#1D1E20" stroke-width="1.49286" stroke-linecap="round" stroke-linejoin="round"/>
<path d="M17.4637 6.92822C17.8898 7.52519 18.1423 8.26728 18.1423 9.07144V14.0306C18.1423 14.732 18.1423 15.0827 18.1033 15.3768C17.8523 17.2745 16.4352 18.7662 14.6324 19.0305C14.353 19.0715 14.0198 19.0715 13.3535 19.0715H9.09326C8.2159 19.0715 7.40719 18.762 6.76025 18.2412" stroke="#1D1E20" stroke-width="1.49286" stroke-linecap="round" stroke-linejoin="round"/>
</g>
</g>
<defs>
<clipPath id="clip0_2004_7625">
<rect width="20" height="20" fill="white" transform="translate(0 0.5)"/>
</clipPath>
</defs>
</svg>
