<svg width="33" height="32" viewBox="0 0 33 32" fill="none" xmlns="http://www.w3.org/2000/svg">
<path d="M11.1636 0H32.035C32.3477 0 32.6002 0.25369 32.6002 0.567143V21.4368C32.6002 21.7503 32.3477 22.0027 32.035 22.0027H10.5972V0.567143C10.5972 0.254909 10.8509 0 11.1636 0Z" fill="#CAF23A"/>
<path d="M1.16536 22.0024H10.598V31.4341C10.598 31.7476 10.3454 32 10.0315 32H1.16536C1.0916 32.0005 1.01847 31.9863 0.950147 31.9581C0.881822 31.9299 0.819639 31.8883 0.76715 31.8358C0.71466 31.7832 0.672892 31.7207 0.644229 31.6518C0.615566 31.5829 0.60057 31.5089 0.600098 31.4341V22.5696C0.600098 22.2561 0.852661 22.0024 1.16536 22.0024Z" fill="#4FC26B"/>
</svg>
