<svg width="35" height="30" viewBox="0 0 35 30" fill="none" xmlns="http://www.w3.org/2000/svg">
<path d="M34.3948 15.752C34.3957 15.628 34.3629 15.506 34.2996 15.3975C34.2363 15.2891 34.1445 15.198 34.0332 15.1331H34.0289L34.015 15.125L22.2332 8.51059C21.9722 8.34391 21.6647 8.25488 21.3501 8.25488C21.0355 8.25488 20.728 8.34391 20.4671 8.51059L8.6863 15.126L8.67239 15.1331C8.56016 15.1994 8.46789 15.2921 8.40451 15.4022C8.34113 15.5123 8.30879 15.636 8.31062 15.7614C8.31245 15.8868 8.34839 16.0097 8.41495 16.1181C8.48152 16.2264 8.57646 16.3167 8.69058 16.3801L20.4713 22.9944C20.7323 23.1611 21.0398 23.2501 21.3544 23.2501C21.669 23.2501 21.9765 23.1611 22.2374 22.9944L34.0182 16.379C34.1338 16.3151 34.2295 16.2234 34.2956 16.1131C34.3618 16.0028 34.396 15.8789 34.3948 15.752Z" fill="#0A2767"/>
<path d="M10.0616 11.3324H17.7924V18.0543H10.0616V11.3324ZM32.8155 4.49988V1.42555C32.8247 1.05623 32.6788 0.698564 32.41 0.431227C32.1412 0.163891 31.7714 0.00877641 31.3821 0H11.3196C10.9302 0.00877641 10.5604 0.163891 10.2916 0.431227C10.0228 0.698564 9.87696 1.05623 9.88615 1.42555V4.49988L21.7461 7.49912L32.8155 4.49988Z" fill="#0364B8"/>
<path d="M9.88965 4.49951H17.797V11.2488H9.88965V4.49951Z" fill="#0078D4"/>
<path d="M25.7016 4.49951H17.7964V11.2488L25.7016 17.9981H32.8184V11.2488L25.7026 4.49951H25.7016Z" fill="#28A8EA"/>
<path d="M17.7964 11.251H25.7037V18.0003H17.7964V11.251Z" fill="#0078D4"/>
<path d="M17.7964 17.9985H25.7037V24.7478H17.7964V17.9985Z" fill="#0364B8"/>
<path d="M10.0664 18.0532H17.7972V24.1633H10.0664V18.0542V18.0532Z" fill="#14447D"/>
<path d="M25.7026 17.9985H32.8184V24.7478H25.7026V17.9985Z" fill="#0078D4"/>
<path d="M34.0365 16.338L34.0215 16.3451L22.2407 22.6297C22.0007 22.7712 21.7262 22.8516 21.4438 22.863L20.7998 22.5069C20.7464 22.4805 20.6929 22.4521 20.6415 22.4207L8.70351 15.9575H8.69709L8.30664 15.7505V28.4729C8.31306 29.3212 9.0426 30.005 9.93796 29.9999H32.7924C32.8063 29.9999 32.8181 29.9939 32.832 29.9939C33.0213 29.9827 33.2075 29.9452 33.3861 29.8843C33.4631 29.8538 33.5369 29.8163 33.6086 29.7747C33.8486 29.6418 34.0479 29.4519 34.1867 29.2236C34.3256 28.9952 34.3991 28.7365 34.4002 28.4729V15.7505C34.3981 15.994 34.2601 16.2182 34.0365 16.338Z" fill="url(#paint0_linear_819_62770)"/>
<path opacity="0.5" d="M33.7654 15.697V16.4773L21.4465 24.5212L8.69338 15.9598L8.69315 15.9568L8.6916 15.9541L8.68903 15.9523L8.68589 15.9517L7.51562 15.2841V14.7219L7.997 14.7148L9.0175 15.2698L9.04104 15.2769L9.12876 15.3297C9.12876 15.3297 21.1149 21.8162 21.147 21.8315L21.6048 22.0861C21.6464 22.07 21.6885 22.0551 21.7311 22.0415C21.7557 22.0263 33.6316 15.6899 33.6316 15.6899L33.7654 15.697Z" fill="#0A2767"/>
<path d="M34.0365 16.338L34.0215 16.3461L22.2407 22.6307C21.9765 22.7892 21.6703 22.8734 21.3577 22.8734C21.0451 22.8734 20.7388 22.7892 20.4746 22.6307L8.69281 16.3461L8.6789 16.338C8.56718 16.2805 8.47373 16.1957 8.40827 16.0924C8.3428 15.9891 8.30771 15.871 8.30664 15.7505V28.4729C8.31199 29.3212 9.0426 30.005 9.93689 29.9999H32.7678C32.9807 30.0014 33.1917 29.9631 33.389 29.8871C33.5862 29.8111 33.7657 29.699 33.9172 29.5572C34.0687 29.4154 34.1893 29.2466 34.272 29.0606C34.3546 28.8745 34.3979 28.6748 34.3991 28.4729V15.7505C34.3991 15.994 34.2601 16.2182 34.0365 16.338Z" fill="#1490DF"/>
<path opacity="0.1" d="M22.409 22.5371L22.2325 22.6315C21.9982 22.7731 21.7299 22.8558 21.4526 22.8719L25.9347 27.8994L33.7544 29.6862C33.9683 29.534 34.1395 29.3311 34.2496 29.0997L22.4079 22.5371H22.409Z" fill="black"/>
<path opacity="0.05" d="M23.207 22.1079L22.2325 22.6274C21.9982 22.7689 21.7299 22.8517 21.4526 22.8679L23.5525 28.3601L33.7565 29.6811C34.1587 29.395 34.3951 28.9455 34.3951 28.4686V28.3043L23.207 22.1079Z" fill="black"/>
<path d="M9.95935 29.9999H32.7657C33.1165 30.001 33.4588 29.8964 33.7423 29.6996L20.7988 22.5079C20.7453 22.4826 20.6918 22.4541 20.6415 22.4217L8.70243 15.9585H8.69602L8.30664 15.7505V28.4293C8.30664 29.2958 9.04474 29.9989 9.95935 29.9999Z" fill="#28A8EA"/>
<path opacity="0.1" d="M19.376 7.37433V23.372C19.3754 23.6462 19.2885 23.9141 19.1266 24.1413C18.9646 24.3684 18.7349 24.5447 18.4668 24.6474C18.2967 24.7164 18.1138 24.7519 17.9287 24.7519H8.30664V6.75034H9.88768V5.99951H17.9287C18.3125 6.00085 18.6802 6.14619 18.9513 6.40379C19.2225 6.66139 19.3752 7.01031 19.376 7.37433Z" fill="black"/>
<path opacity="0.2" d="M18.5855 8.12634V24.122C18.5877 24.3036 18.547 24.4832 18.4668 24.6476C18.3593 24.8985 18.1756 25.1135 17.9391 25.2652C17.7025 25.417 17.4238 25.4986 17.1382 25.4998H8.30664V6.75152H17.1382C17.3682 6.74949 17.5939 6.80327 17.795 6.90879C18.2796 7.14012 18.5855 7.61091 18.5855 8.12634Z" fill="black"/>
<path opacity="0.2" d="M18.5855 8.12634V22.6224C18.5839 22.9864 18.431 23.3352 18.1601 23.5931C17.8892 23.851 17.522 23.9973 17.1382 24.0002H8.30664V6.75152H17.1382C17.3682 6.74949 17.5939 6.80327 17.795 6.90879C18.2796 7.14012 18.5855 7.61091 18.5855 8.12634Z" fill="black"/>
<path opacity="0.2" d="M17.795 8.12629V22.6223C17.7945 22.9867 17.642 23.3361 17.3708 23.5942C17.0997 23.8524 16.7319 23.9983 16.3477 24.0002H8.30664V6.75146H16.3477C17.1478 6.75146 17.795 7.36734 17.795 8.12527V8.12629Z" fill="black"/>
<path d="M1.85044 6.75146H16.3451C17.1463 6.75146 17.7945 7.36633 17.7945 8.12629V21.8745C17.7945 22.6355 17.1463 23.2504 16.3461 23.2504H1.84937C1.46494 23.2504 1.09627 23.1055 0.82444 22.8477C0.552613 22.5898 0.399902 22.2402 0.399902 21.8755V8.12629C0.399902 7.36633 1.05029 6.75146 1.85044 6.75146Z" fill="url(#paint1_linear_819_62770)"/>
<path d="M4.92931 12.5144C5.28651 11.7923 5.86318 11.1881 6.58523 10.7793C7.38468 10.3453 8.29492 10.1291 9.21566 10.1543C10.0691 10.1365 10.9114 10.3415 11.6503 10.7469C12.3446 11.1405 12.904 11.7158 13.2603 12.4048C13.6486 13.1637 13.8422 13.9977 13.8251 14.8419C13.844 15.7232 13.645 16.5964 13.2442 17.3917C12.879 18.105 12.3015 18.7011 11.5829 19.1064C10.8158 19.5242 9.94274 19.7347 9.05841 19.7152C8.18688 19.7356 7.32618 19.5285 6.57026 19.1165C5.86927 18.7231 5.30256 18.1464 4.93787 17.4556C4.54723 16.7075 4.35134 15.8815 4.36664 15.0469C4.35065 14.1733 4.543 13.3075 4.92931 12.5144ZM6.69434 16.5861C6.88475 17.0426 7.20781 17.4384 7.625 17.7275C8.05074 18.0096 8.561 18.1557 9.07981 18.1435C9.63295 18.1642 10.1782 18.0136 10.633 17.7143C11.0455 17.4259 11.3598 17.029 11.5369 16.5729C11.7354 16.0632 11.8333 15.5232 11.8258 14.9799C11.832 14.4318 11.7401 13.8866 11.5541 13.3677C11.3896 12.8992 11.0853 12.486 10.678 12.1785C10.2345 11.8655 9.69094 11.7067 9.13864 11.729C8.60807 11.7159 8.08677 11.8626 7.6496 12.1481C7.22446 12.4387 6.89536 12.8382 6.70076 13.2997C6.26918 14.3569 6.2669 15.5274 6.69434 16.5861Z" fill="white"/>
<path d="M25.7026 4.49951H32.8184V11.2488H25.7026V4.49951Z" fill="#50D9FF"/>
<defs>
<linearGradient id="paint0_linear_819_62770" x1="21.3529" y1="15.7505" x2="21.3529" y2="29.9999" gradientUnits="userSpaceOnUse">
<stop stop-color="#35B8F1"/>
<stop offset="1" stop-color="#28A8EA"/>
</linearGradient>
<linearGradient id="paint1_linear_819_62770" x1="3.42185" y1="5.67697" x2="13.8964" y2="24.8046" gradientUnits="userSpaceOnUse">
<stop stop-color="#1784D9"/>
<stop offset="0.5" stop-color="#107AD5"/>
<stop offset="1" stop-color="#0A63C9"/>
</linearGradient>
</defs>
</svg>
