<svg width="293" height="150" viewBox="0 0 293 150" fill="none" xmlns="http://www.w3.org/2000/svg">
<path d="M287.946 31.5508H5.0542V120.471H287.946V31.5508Z" stroke="#505967" stroke-width="0.5" stroke-linecap="round" stroke-dasharray="4 4"/>
<path d="M8.09618 26.4985H3.02643C1.90646 26.4985 0.998535 27.4033 0.998535 28.5194V33.5717C0.998535 34.6878 1.90646 35.5926 3.02643 35.5926H8.09618C9.21616 35.5926 10.1241 34.6878 10.1241 33.5717V28.5194C10.1241 27.4033 9.21616 26.4985 8.09618 26.4985Z" fill="#26282D" stroke="#505967" stroke-width="0.5"/>
<path d="M289.974 26.4985H284.904C283.784 26.4985 282.876 27.4033 282.876 28.5194V33.5717C282.876 34.6878 283.784 35.5926 284.904 35.5926H289.974C291.094 35.5926 292.002 34.6878 292.002 33.5717V28.5194C292.002 27.4033 291.094 26.4985 289.974 26.4985Z" fill="#26282D" stroke="#505967" stroke-width="0.5"/>
<path d="M8.09618 115.418H3.02643C1.90646 115.418 0.998535 116.323 0.998535 117.439V122.491C0.998535 123.607 1.90646 124.512 3.02643 124.512H8.09618C9.21616 124.512 10.1241 123.607 10.1241 122.491V117.439C10.1241 116.323 9.21616 115.418 8.09618 115.418Z" fill="#26282D" stroke="#505967" stroke-width="0.5"/>
<path d="M289.974 115.418H284.904C283.784 115.418 282.876 116.323 282.876 117.439V122.491C282.876 123.607 283.784 124.512 284.904 124.512H289.974C291.094 124.512 292.002 123.607 292.002 122.491V117.439C292.002 116.323 291.094 115.418 289.974 115.418Z" fill="#26282D" stroke="#505967" stroke-width="0.5"/>
<path d="M156.133 99.251H117.603C114.243 99.251 111.52 101.965 111.52 105.314V127.544C111.52 130.892 114.243 133.606 117.603 133.606H156.133C159.493 133.606 162.217 130.892 162.217 127.544V105.314C162.217 101.965 159.493 99.251 156.133 99.251Z" fill="#26282D"/>
<path d="M156.133 99.5039H117.603C114.383 99.5039 111.773 102.105 111.773 105.314V127.544C111.773 130.753 114.383 133.354 117.603 133.354H156.133C159.353 133.354 161.963 130.753 161.963 127.544V105.314C161.963 102.105 159.353 99.5039 156.133 99.5039Z" stroke="#383E47" stroke-width="0.5"/>
<path d="M132.812 124.513H118.617C117.497 124.513 116.589 125.417 116.589 126.534C116.589 127.65 117.497 128.555 118.617 128.555H132.812C133.932 128.555 134.84 127.65 134.84 126.534C134.84 125.417 133.932 124.513 132.812 124.513Z" fill="#383E47"/>
<path d="M98.3379 99.251H59.8078C56.4479 99.251 53.7241 101.965 53.7241 105.314V127.544C53.7241 130.892 56.4479 133.606 59.8078 133.606H98.3379C101.698 133.606 104.422 130.892 104.422 127.544V105.314C104.422 101.965 101.698 99.251 98.3379 99.251Z" fill="#26282D"/>
<path d="M98.3378 99.5039H59.8077C56.5878 99.5039 53.9775 102.105 53.9775 105.314V127.544C53.9775 130.753 56.5878 133.354 59.8077 133.354H98.3378C101.558 133.354 104.168 130.753 104.168 127.544V105.314C104.168 102.105 101.558 99.5039 98.3378 99.5039Z" stroke="#383E47" stroke-width="0.5"/>
<path d="M74.0032 124.513H60.8218C59.7019 124.513 58.7939 125.417 58.7939 126.534C58.7939 127.65 59.7019 128.555 60.8218 128.555H74.0032C75.1232 128.555 76.0311 127.65 76.0311 126.534C76.0311 125.417 75.1232 124.513 74.0032 124.513Z" fill="#383E47"/>
<path d="M91.2398 57.8223H59.8073C56.4474 57.8223 53.7236 60.5366 53.7236 63.885V86.1149C53.7236 89.4633 56.4474 92.1777 59.8073 92.1777H91.2398C94.5997 92.1777 97.3235 89.4633 97.3235 86.1149V63.885C97.3235 60.5366 94.5997 57.8223 91.2398 57.8223Z" fill="#26282D"/>
<path d="M91.2397 58.0752H59.8073C56.5873 58.0752 53.9771 60.6765 53.9771 63.8853V86.1153C53.9771 89.3241 56.5873 91.9254 59.8073 91.9254H91.2397C94.4596 91.9254 97.0699 89.3241 97.0699 86.1153V63.8853C97.0699 60.6765 94.4596 58.0752 91.2397 58.0752Z" stroke="#383E47" stroke-width="0.5"/>
<path d="M74.0027 83.083H60.8214C59.7014 83.083 58.7935 83.9878 58.7935 85.1039C58.7935 86.22 59.7014 87.1248 60.8214 87.1248H74.0027C75.1227 87.1248 76.0306 86.22 76.0306 85.1039C76.0306 83.9878 75.1227 83.083 74.0027 83.083Z" fill="#383E47"/>
<path d="M112.533 16.394H59.8078C56.4479 16.394 53.7241 19.1084 53.7241 22.4568V44.6867C53.7241 48.0351 56.4479 50.7494 59.8078 50.7494H112.533C115.893 50.7494 118.617 48.0351 118.617 44.6867V22.4568C118.617 19.1084 115.893 16.394 112.533 16.394Z" fill="#26282D"/>
<path d="M112.533 16.6465H59.8077C56.5878 16.6465 53.9775 19.2478 53.9775 22.4566V44.6866C53.9775 47.8954 56.5878 50.4967 59.8077 50.4967H112.533C115.753 50.4967 118.363 47.8954 118.363 44.6866V22.4566C118.363 19.2478 115.753 16.6465 112.533 16.6465Z" stroke="#383E47" stroke-width="0.5"/>
<path d="M74.0032 41.6553H60.8218C59.7019 41.6553 58.7939 42.5601 58.7939 43.6762C58.7939 44.7923 59.7019 45.6971 60.8218 45.6971H74.0032C75.1232 45.6971 76.0311 44.7923 76.0311 43.6762C76.0311 42.5601 75.1232 41.6553 74.0032 41.6553Z" fill="#383E47"/>
<path d="M62.8497 23.4672C62.8497 22.3511 61.9418 21.4463 60.8218 21.4463C59.7019 21.4463 58.7939 22.3511 58.7939 23.4672C58.7939 24.5833 59.7019 25.4881 60.8218 25.4881C61.9418 25.4881 62.8497 24.5833 62.8497 23.4672Z" fill="#383E47"/>
<path d="M233.193 99.251H175.398C172.038 99.251 169.314 101.965 169.314 105.314V127.544C169.314 130.892 172.038 133.606 175.398 133.606H233.193C236.553 133.606 239.276 130.892 239.276 127.544V105.314C239.276 101.965 236.553 99.251 233.193 99.251Z" fill="#26282D"/>
<path d="M233.193 99.5039H175.398C172.178 99.5039 169.567 102.105 169.567 105.314V127.544C169.567 130.753 172.178 133.354 175.398 133.354H233.193C236.413 133.354 239.023 130.753 239.023 127.544V105.314C239.023 102.105 236.413 99.5039 233.193 99.5039Z" stroke="#383E47" stroke-width="0.5"/>
<path d="M191.621 124.513H176.412C175.292 124.513 174.384 125.417 174.384 126.534C174.384 127.65 175.292 128.555 176.412 128.555H191.621C192.741 128.555 193.649 127.65 193.649 126.534C193.649 125.417 192.741 124.513 191.621 124.513Z" fill="#383E47"/>
<path d="M224.053 106.41C224.053 105.796 224.553 105.299 225.168 105.299C225.785 105.299 226.283 105.796 226.283 106.41V107.522H225.168C224.553 107.522 224.053 107.024 224.053 106.41Z" stroke="#6F7988" stroke-width="1.13143" stroke-linecap="round" stroke-linejoin="round"/>
<path d="M231.063 106.41C231.063 105.796 231.563 105.299 232.179 105.299C232.795 105.299 233.294 105.796 233.294 106.41C233.294 107.024 232.795 107.522 232.179 107.522H231.063V106.41Z" stroke="#6F7988" stroke-width="1.13143" stroke-linecap="round" stroke-linejoin="round"/>
<path d="M231.063 112.286H232.179C232.795 112.286 233.294 112.783 233.294 113.398C233.294 114.011 232.795 114.509 232.179 114.509C231.563 114.509 231.063 114.011 231.063 113.398V112.286Z" stroke="#6F7988" stroke-width="1.13143" stroke-linecap="round" stroke-linejoin="round"/>
<path d="M224.053 113.398C224.053 112.783 224.553 112.286 225.168 112.286H226.283V113.398C226.283 114.011 225.785 114.509 225.168 114.509C224.553 114.509 224.053 114.011 224.053 113.398Z" stroke="#6F7988" stroke-width="1.13143" stroke-linecap="round" stroke-linejoin="round"/>
<path d="M226.284 107.522H231.063V112.286H226.284V107.522Z" stroke="#6F7988" stroke-width="1.13143" stroke-linecap="round" stroke-linejoin="round"/>
<path d="M132.812 57.8223H110.505C107.145 57.8223 104.421 60.5366 104.421 63.885V86.1149C104.421 89.4633 107.145 92.1777 110.505 92.1777H132.812C136.172 92.1777 138.896 89.4633 138.896 86.1149V63.885C138.896 60.5366 136.172 57.8223 132.812 57.8223Z" fill="#26282D"/>
<path d="M132.812 58.0752H110.505C107.285 58.0752 104.675 60.6765 104.675 63.8853V86.1153C104.675 89.3241 107.285 91.9254 110.505 91.9254H132.812C136.032 91.9254 138.642 89.3241 138.642 86.1153V63.8853C138.642 60.6765 136.032 58.0752 132.812 58.0752Z" stroke="#383E47" stroke-width="0.5"/>
<path d="M118.277 80.0519V78.9453L122.692 72.7706H118.268V71.2334H125.043V72.34L120.623 78.5147H125.052V80.0519H118.277Z" fill="#9098A0"/>
<path d="M174.384 57.8223H152.077C148.717 57.8223 145.993 60.5366 145.993 63.885V86.1149C145.993 89.4633 148.717 92.1777 152.077 92.1777H174.384C177.744 92.1777 180.467 89.4633 180.467 86.1149V63.885C180.467 60.5366 177.744 57.8223 174.384 57.8223Z" fill="#26282D"/>
<path d="M174.384 58.0752H152.077C148.857 58.0752 146.247 60.6765 146.247 63.8853V86.1153C146.247 89.3241 148.857 91.9254 152.077 91.9254H174.384C177.604 91.9254 180.214 89.3241 180.214 86.1153V63.8853C180.214 60.6765 177.604 58.0752 174.384 58.0752Z" stroke="#383E47" stroke-width="0.5"/>
<path d="M161.387 71.2334L163.336 74.4629H163.405L165.362 71.2334H167.19L164.463 75.6427L167.232 80.0519H165.375L163.405 76.844H163.336L161.366 80.0519H159.516L162.312 75.6427L159.551 71.2334H161.387Z" fill="#6B9FFF"/>
<path d="M154.105 16.394H131.798C128.438 16.394 125.714 19.1084 125.714 22.4568V44.6867C125.714 48.0351 128.438 50.7494 131.798 50.7494H154.105C157.465 50.7494 160.189 48.0351 160.189 44.6867V22.4568C160.189 19.1084 157.465 16.394 154.105 16.394Z" fill="#26282D"/>
<path d="M154.105 16.6465H131.798C128.578 16.6465 125.968 19.2478 125.968 22.4566V44.6866C125.968 47.8954 128.578 50.4967 131.798 50.4967H154.105C157.325 50.4967 159.935 47.8954 159.935 44.6866V22.4566C159.935 19.2478 157.325 16.6465 154.105 16.6465Z" stroke="#383E47" stroke-width="0.5"/>
<path d="M140.905 38.6237H139.194L142.309 29.8052H144.288L147.408 38.6237H145.696L143.333 31.6137H143.264L140.905 38.6237ZM140.961 35.166H145.627V36.4492H140.961V35.166Z" fill="#6B9FFF"/>
<path d="M195.677 16.394H173.37C170.01 16.394 167.286 19.1084 167.286 22.4568V44.6867C167.286 48.0351 170.01 50.7494 173.37 50.7494H195.677C199.037 50.7494 201.76 48.0351 201.76 44.6867V22.4568C201.76 19.1084 199.037 16.394 195.677 16.394Z" fill="#26282D"/>
<path d="M195.677 16.6465H173.37C170.15 16.6465 167.54 19.2478 167.54 22.4566V44.6866C167.54 47.8954 170.15 50.4967 173.37 50.4967H195.677C198.897 50.4967 201.507 47.8954 201.507 44.6866V22.4566C201.507 19.2478 198.897 16.6465 195.677 16.6465Z" stroke="#383E47" stroke-width="0.5"/>
<path d="M186.15 32.2299C186.109 31.8538 185.939 31.561 185.64 31.3515C185.342 31.1419 184.957 31.0371 184.482 31.0371C184.147 31.0371 183.861 31.0874 183.622 31.1878C183.383 31.2883 183.2 31.4247 183.073 31.5969C182.947 31.7691 182.882 31.9658 182.879 32.1868C182.879 32.3705 182.92 32.5298 183.003 32.6648C183.091 32.7997 183.207 32.9145 183.354 33.0092C183.5 33.1011 183.663 33.1786 183.842 33.2418C184.02 33.3049 184.201 33.3581 184.382 33.4011L185.212 33.6077C185.546 33.6852 185.867 33.79 186.175 33.9221C186.486 34.0542 186.764 34.2206 187.009 34.4216C187.257 34.6225 187.453 34.865 187.597 35.1493C187.74 35.4334 187.812 35.7665 187.812 36.1482C187.812 36.665 187.681 37.12 187.415 37.5132C187.15 37.9036 186.767 38.2093 186.266 38.4303C185.767 38.6485 185.164 38.7576 184.455 38.7576C183.767 38.7576 183.17 38.6514 182.663 38.439C182.159 38.2265 181.763 37.9165 181.478 37.5089C181.196 37.1013 181.043 36.6046 181.02 36.0191H182.598C182.621 36.3263 182.715 36.5817 182.883 36.7855C183.05 36.9893 183.267 37.1415 183.536 37.2419C183.806 37.3424 184.109 37.3926 184.442 37.3926C184.791 37.3926 185.096 37.341 185.359 37.2376C185.623 37.1314 185.831 36.985 185.981 36.7984C186.13 36.609 186.207 36.3879 186.209 36.1353C186.207 35.9057 186.139 35.7162 186.007 35.5669C185.874 35.4148 185.688 35.2885 185.449 35.188C185.213 35.0847 184.937 34.9928 184.62 34.9124L183.613 34.6541C182.885 34.4675 182.308 34.1847 181.885 33.8058C181.464 33.424 181.254 32.9174 181.254 32.2859C181.254 31.7663 181.395 31.3113 181.677 30.9208C181.962 30.5305 182.35 30.2276 182.839 30.0123C183.329 29.7942 183.883 29.6851 184.503 29.6851C185.131 29.6851 185.681 29.7942 186.154 30.0123C186.629 30.2276 187.002 30.5276 187.273 30.9123C187.544 31.294 187.683 31.7332 187.692 32.2299H186.15Z" fill="#6B9FFF"/>
</svg>
