<svg width="33" height="32" viewBox="0 0 33 32" fill="none" xmlns="http://www.w3.org/2000/svg">
<path d="M6.29486 24.9042C5.81669 24.9205 5.36362 25.1186 5.0312 25.4568C4.69878 25.795 4.51297 26.2469 4.51297 26.7172C4.51297 27.1875 4.69878 27.6394 5.0312 27.9776C5.36362 28.3158 5.81669 28.5139 6.29486 28.5302C6.77303 28.5139 7.22609 28.3158 7.55852 27.9776C7.89094 27.6394 8.07675 27.1875 8.07675 26.7172C8.07675 26.2469 7.89094 25.795 7.55852 25.4568C7.22609 25.1186 6.77303 24.9205 6.29486 24.9042ZM26.6387 2.99492C26.2735 2.99449 25.9163 3.1005 25.6124 3.29955C25.3085 3.49859 25.0715 3.78174 24.9313 4.11318C24.7911 4.44463 24.754 4.80949 24.8247 5.16164C24.8955 5.5138 25.0708 5.83743 25.3287 6.09163C25.5865 6.34582 25.9153 6.51917 26.2734 6.58975C26.6314 6.66033 27.0028 6.62497 27.3404 6.48815C27.678 6.35133 27.9668 6.11919 28.1702 5.82107C28.3736 5.52295 28.4826 5.17225 28.4832 4.8133V4.8068C28.4832 3.8067 27.6562 2.99492 26.6387 2.99492ZM13.2777 10.3193V12.5447C13.2777 12.8759 13.5508 13.1508 13.8943 13.1508H32.1723C32.3358 13.1508 32.4927 13.0869 32.6083 12.9733C32.724 12.8596 32.789 12.7054 32.789 12.5447V10.3193C32.7878 10.1589 32.7225 10.0054 32.6071 9.89197C32.4917 9.77854 32.3355 9.71432 32.1723 9.71318H13.8943C13.7312 9.71459 13.5752 9.77891 13.4599 9.89227C13.3445 10.0056 13.2791 10.159 13.2777 10.3193ZM20.3111 20.5769V18.3581C20.3111 18.1973 20.2461 18.0431 20.1305 17.9295C20.0148 17.8158 19.858 17.7519 19.6944 17.7519H1.41648C1.25293 17.7519 1.09608 17.8158 0.980426 17.9295C0.864776 18.0431 0.799805 18.1973 0.799805 18.3581V20.5769C0.799805 20.9081 1.07291 21.183 1.41648 21.183H19.6944C20.038 21.183 20.3111 20.9146 20.3111 20.5769ZM32.6491 17.5896C32.5998 17.5273 32.5384 17.4753 32.4685 17.4367C32.3985 17.398 32.3214 17.3735 32.2417 17.3644L29.9974 17.1393C29.8382 17.1218 29.6784 17.1665 29.5523 17.2636C29.4263 17.3608 29.3441 17.5027 29.3234 17.6589C28.3819 24.547 21.9266 29.3852 14.9185 28.4533C13.945 28.3224 12.9913 28.0853 12.0751 27.7476C12.0017 27.7187 11.9232 27.7042 11.844 27.7052C11.7649 27.7062 11.6868 27.7226 11.6141 27.7534C11.5414 27.7841 11.4757 27.8287 11.4206 27.8846C11.3656 27.9405 11.3223 28.0065 11.2933 28.0788L10.4343 30.1223C10.4028 30.1974 10.3869 30.2779 10.3875 30.3592C10.3881 30.4404 10.4052 30.5206 10.4379 30.5953C10.4705 30.6699 10.518 30.7374 10.5775 30.7937C10.637 30.85 10.7074 30.8941 10.7845 30.9233C19.1724 34.1044 28.6043 29.9979 31.8419 21.7524C32.3112 20.5591 32.6314 19.3143 32.7956 18.0453C32.8056 17.9634 32.7977 17.8804 32.7725 17.8018C32.7472 17.7233 32.7052 17.6509 32.6491 17.5896ZM0.934153 12.4884C0.890128 12.4205 0.861104 12.3443 0.848963 12.2647C0.836822 12.185 0.841834 12.1038 0.863675 12.0262C1.75967 8.58436 3.79637 5.53382 6.65229 3.35612C9.50821 1.17842 13.0207 -0.00241825 16.6353 3.71828e-06C18.4545 3.71828e-06 20.2671 0.294408 21.9838 0.887546C22.3021 0.988207 22.4794 1.32591 22.3781 1.63763C22.3715 1.65062 22.366 1.6701 22.3594 1.68092L21.5511 3.75691C21.4973 3.90445 21.3861 4.02496 21.242 4.09194C21.0979 4.15892 20.9325 4.16689 20.7824 4.11409C19.4452 3.66531 18.0417 3.4371 16.6286 3.43869C13.7046 3.4253 10.8661 4.4083 8.5964 6.22038C6.46854 7.91467 4.94498 10.231 4.2466 12.8337C4.21253 12.9624 4.13601 13.0764 4.02902 13.1579C3.92203 13.2393 3.79059 13.2837 3.65525 13.2839C3.60884 13.2901 3.5618 13.2901 3.5154 13.2839L1.31517 12.7893C1.15321 12.7415 1.0163 12.6341 0.933051 12.4895L0.934153 12.4884Z" fill="#25C365"/>
</svg>
