<svg width="292" height="150" viewBox="0 0 292 150" fill="none" xmlns="http://www.w3.org/2000/svg">
<path d="M286.958 32H5.04199V120H286.958V32Z" stroke="#505967" stroke-width="0.5" stroke-linecap="round" stroke-dasharray="4 4"/>
<path d="M8.07317 27H3.02091C1.90479 27 1 27.8954 1 29V34C1 35.1046 1.90479 36 3.02091 36H8.07317C9.18929 36 10.0941 35.1046 10.0941 34V29C10.0941 27.8954 9.18929 27 8.07317 27Z" fill="#26282D" stroke="#505967" stroke-width="0.5"/>
<path d="M288.979 27H283.927C282.811 27 281.906 27.8954 281.906 29V34C281.906 35.1046 282.811 36 283.927 36H288.979C290.095 36 291 35.1046 291 34V29C291 27.8954 290.095 27 288.979 27Z" fill="#26282D" stroke="#505967" stroke-width="0.5"/>
<path d="M8.07317 115H3.02091C1.90479 115 1 115.895 1 117V122C1 123.105 1.90479 124 3.02091 124H8.07317C9.18929 124 10.0941 123.105 10.0941 122V117C10.0941 115.895 9.18929 115 8.07317 115Z" fill="#26282D" stroke="#505967" stroke-width="0.5"/>
<path d="M288.979 115H283.927C282.811 115 281.906 115.895 281.906 117V122C281.906 123.105 282.811 124 283.927 124H288.979C290.095 124 291 123.105 291 122V117C291 115.895 290.095 115 288.979 115Z" fill="#26282D" stroke="#505967" stroke-width="0.5"/>
<path d="M233.066 17H60.279C56.9307 17 54.2163 19.6863 54.2163 23V45C54.2163 48.3137 56.9307 51 60.279 51H233.066C236.415 51 239.129 48.3137 239.129 45V23C239.129 19.6863 236.415 17 233.066 17Z" fill="#26282D"/>
<path d="M233.067 17.25H60.2793C57.0705 17.25 54.4692 19.8244 54.4692 23V45C54.4692 48.1756 57.0705 50.75 60.2793 50.75H233.067C236.276 50.75 238.877 48.1756 238.877 45V23C238.877 19.8244 236.276 17.25 233.067 17.25Z" stroke="#505967" stroke-width="0.5"/>
<path d="M125.959 31H87.5616C85.8875 31 84.5303 32.3431 84.5303 34C84.5303 35.6569 85.8875 37 87.5616 37H125.959C127.633 37 128.99 35.6569 128.99 34C128.99 32.3431 127.633 31 125.959 31Z" fill="#505967"/>
<path d="M72.5721 31.3337C72.5721 32.5303 71.5918 33.5003 70.3827 33.5003C69.1736 33.5003 68.1934 32.5303 68.1934 31.3337C68.1934 30.137 69.1736 29.167 70.3827 29.167C71.5918 29.167 72.5721 30.137 72.5721 31.3337Z" fill="#6B9FFF" stroke="#6B9FFF" stroke-width="1.2" stroke-linecap="round" stroke-linejoin="round"/>
<path d="M66.9114 38.833H73.8532C74.6225 38.833 75.215 38.1784 74.8558 37.5053C74.3274 36.515 73.1226 35.333 70.3823 35.333C67.6419 35.333 66.4373 36.515 65.9089 37.5053C65.5496 38.1784 66.1422 38.833 66.9114 38.833Z" fill="#6B9FFF" stroke="#6B9FFF" stroke-width="1.2" stroke-linecap="round" stroke-linejoin="round"/>
<path d="M202.753 31H181.534C179.86 31 178.502 32.3431 178.502 34C178.502 35.6569 179.86 37 181.534 37H202.753C204.427 37 205.785 35.6569 205.785 34C205.785 32.3431 204.427 31 202.753 31Z" fill="#505967"/>
<path d="M164.356 31.834L160.819 36.1673H167.893L164.356 31.834Z" fill="#6F7988" stroke="#6F7988" stroke-width="1.2" stroke-linecap="round" stroke-linejoin="round"/>
<path d="M147.178 21V47" stroke="#505967" stroke-width="0.5"/>
<path d="M233.066 99H60.279C56.9307 99 54.2163 101.686 54.2163 105V127C54.2163 130.314 56.9307 133 60.279 133H233.066C236.415 133 239.129 130.314 239.129 127V105C239.129 101.686 236.415 99 233.066 99Z" fill="#26282D"/>
<path d="M233.067 99.25H60.2793C57.0705 99.25 54.4692 101.824 54.4692 105V127C54.4692 130.176 57.0705 132.75 60.2793 132.75H233.067C236.276 132.75 238.877 130.176 238.877 127V105C238.877 101.824 236.276 99.25 233.067 99.25Z" stroke="#505967" stroke-width="0.5"/>
<path d="M120.907 113H87.5616C85.8875 113 84.5303 114.343 84.5303 116C84.5303 117.657 85.8875 119 87.5616 119H120.907C122.581 119 123.938 117.657 123.938 116C123.938 114.343 122.581 113 120.907 113Z" fill="#505967"/>
<path d="M73.0371 111.365C73.0371 113.321 71.9717 115.083 69.9951 115.083C71.9717 115.083 73.0371 116.846 73.0371 118.802C73.0371 116.846 74.1025 115.083 76.079 115.083C74.1025 115.083 73.0371 113.321 73.0371 111.365Z" fill="#6B9FFF"/>
<path d="M68.0268 117.031C68.0268 118.205 66.8867 119.333 65.7007 119.333C66.8867 119.333 68.0268 120.462 68.0268 121.636C68.0268 120.462 69.1671 119.333 70.353 119.333C69.1671 119.333 68.0268 118.205 68.0268 117.031Z" fill="#6B9FFF"/>
<path d="M73.0371 111.365C73.0371 113.321 71.9717 115.083 69.9951 115.083C71.9717 115.083 73.0371 116.846 73.0371 118.802C73.0371 116.846 74.1025 115.083 76.079 115.083C74.1025 115.083 73.0371 113.321 73.0371 111.365Z" stroke="#6B9FFF" stroke-width="1.275" stroke-linecap="round" stroke-linejoin="round"/>
<path d="M68.0268 117.031C68.0268 118.205 66.8867 119.333 65.7007 119.333C66.8867 119.333 68.0268 120.462 68.0268 121.636C68.0268 120.462 69.1671 119.333 70.353 119.333C69.1671 119.333 68.0268 118.205 68.0268 117.031Z" stroke="#6B9FFF" stroke-width="1.275" stroke-linecap="round" stroke-linejoin="round"/>
<path d="M212.858 113H181.534C179.86 113 178.502 114.343 178.502 116C178.502 117.657 179.86 119 181.534 119H212.858C214.532 119 215.889 117.657 215.889 116C215.889 114.343 214.532 113 212.858 113Z" fill="#505967"/>
<path d="M164.356 113.834L160.819 118.167H167.893L164.356 113.834Z" fill="#6F7988" stroke="#6F7988" stroke-width="1.2" stroke-linecap="round" stroke-linejoin="round"/>
<path d="M147.178 103V129" stroke="#505967" stroke-width="0.5"/>
<path d="M233.066 58H60.279C56.9307 58 54.2163 60.6863 54.2163 64V86C54.2163 89.3137 56.9307 92 60.279 92H233.066C236.415 92 239.129 89.3137 239.129 86V64C239.129 60.6863 236.415 58 233.066 58Z" fill="#26282D"/>
<path d="M233.067 58.25H60.2793C57.0705 58.25 54.4692 60.8244 54.4692 64V86C54.4692 89.1756 57.0705 91.75 60.2793 91.75H233.067C236.276 91.75 238.877 89.1756 238.877 86V64C238.877 60.8244 236.276 58.25 233.067 58.25Z" stroke="#505967" stroke-width="0.5"/>
<path d="M106.76 72H87.5616C85.8875 72 84.5303 73.3431 84.5303 75C84.5303 76.6569 85.8875 78 87.5616 78H106.76C108.434 78 109.792 76.6569 109.792 75C109.792 73.3431 108.434 72 106.76 72Z" fill="#505967"/>
<path d="M66.3418 75.5374L71.1361 70.167V74.4633H74.2516L69.1152 79.8337V75.5374H66.3418Z" fill="#6F7988" stroke="#6F7988" stroke-width="1.2" stroke-linecap="round" stroke-linejoin="round"/>
<path d="M218.921 72H181.534C179.86 72 178.502 73.3431 178.502 75C178.502 76.6569 179.86 78 181.534 78H218.921C220.595 78 221.952 76.6569 221.952 75C221.952 73.3431 220.595 72 218.921 72Z" fill="#505967"/>
<path d="M164.356 77.1663L167.893 72.833H160.819L164.356 77.1663Z" fill="#6B9FFF" stroke="#6B9FFF" stroke-width="1.2" stroke-linecap="round" stroke-linejoin="round"/>
<path d="M147.178 62V88" stroke="#505967" stroke-width="0.5"/>
</svg>
